<svg xmlns="http://www.w3.org/2000/svg" viewBox="0 0 90 90" width="90" height="90"><path d="M45 90C20.138 90 0 69.862 0 45S20.138 0 45 0s45 20.138 45 45 -20.138 45 -45 45z" opacity="undefined" fill="#63c9e0"/><g fill-rule="evenodd" fill="none">
    <path d="M49.283 68c0.044 0.23 0.093 0.42 0.142 0.59h-8.88c0.052 -0.17 0.1 -0.36
     0.147 -0.59 0.146 -0.741 0.132 -1.81 0.12 -2.84 -0.004 -0.205 
     -0.006 -0.4 -0.007 -0.59h8.365l-0.006 0.622c-0.015 1.014 -0.03 
     2.065 0.12 2.81L49.283 68zm17.705 -5.393H23.332c-0.179 
     0 -0.533 -0.367 -0.533 -0.603v-2.9h44.405v2.965c0
      0.303 -0.154 0.537 -0.216 0.537zm2.167 -5.495v-26.11a2.255 2.255 0 
      0 0 -2.254 -2.252h-6.538v-1.675h-1.965v27.333h1.965V30.715h6.538c0.16 
      0 0.288 0.128 0.288 0.287v26.133H22.798V31.003c0 -0.159 0.127 -0.287 
      0.287 -0.287h6.612v23.691h1.966V21.405h21.07V19.44H29.695v9.31h-6.611a2.256 
      2.256 0 0 0 -2.253 2.253v28.1h0.003v2.9c0 1.32 1.215 2.568 2.498 2.568H38.84l0.006 
      0.616c0.006 0.388 0.01 0.822 0.005 1.23 -0.008 0.472 -0.03 0.911 -0.087 1
      .202 -0.061 0.302 -0.1 0.434 -0.122 0.49 -0.046 0.029 -0.098 0.053 -0.159 
      0.089l-0.067 0.036a16.363 16.363 0 0 1 -0.745 0.358h-1.243v1.966h15.425a0.02 
      0.02 0 0 0 0.007 0.001l0.001 -0.001h1.72V68.59h-1.313a17.384 17.384 0 0 1 -0.78 -0.377c-0.06 -0.034 -0.112 -0.06 -0.157 -0.088a4.407 4.407 0 0 1 -0.119 -0.506c-0.057 -0.282 -0.08 -0.694 -0.087 -1.143 -0.007 -0.416 0 -0.862 0.004 -1.26 0.003 -0.223 0.006 -0.438 0.007 -0.645h15.852c1.366 0 2.181 -1.274 2.181 -2.503V57.11h-0.014z" fill="#2E2D42"/><path d="M25.439 54.408h4.256V33.416h-4.257l0.001 20.993zm34.923 0h4.136V33.416h-4.136V54.41zM52.73 27.074h7.575l-7.575 -7.576v7.577z" fill="#FEFEFE"/><path d="M53.946 30.72v-1.966H40.164v1.966h13.782zm-13.782 3.073h13.782v-1.966H40.164v1.965zm-5.121 -3.22 -1.065 1.651 2.15 1.389 2.686 -3.369 -0.641 -0.512 -0.895 -0.714 -0.57 0.714 -1.01 1.264 -0.655 -0.423zm5.121 9.312h13.782V37.92H40.164v1.965zm0 3.075h13.782v-1.966H40.164v1.966zm-1.35 -3.55 -1.538 -1.224 -1.577 1.98 -0.657 -0.426 -1.067 1.652 2.152 1.386 2.687 -3.367zm1.35 9.644h13.782v-1.966H40.164v1.965zm0 3.071h13.782v-1.964H40.164v1.964zm-1.35 -3.546 -1.538 -1.226 -1.577 1.979 -0.657 -0.424 -1.067 1.652 2.152 1.386 2.687 -3.367z" fill="#2E2D42"/></g></svg>