<svg xmlns="http://www.w3.org/2000/svg" viewBox="0 0 90 90" width="90" height="90"><path cx="45" cy="45" r="45" fill="#f47e3d" d="M90 45A45 45 0 0 1 45 90A45 45 0 0 1 0 45A45 45 0 0 1 90 45z"/><g stroke="null" fill="none" fill-rule="evenodd"><path stroke="#2E2E41" stroke-width="2" d="m54.434 61.154 3.686 1.562 1.883 -3.3 -7.917 -22.82"/><path fill="#FFF" d="M38.91 17.55c-1.764 1.309 0.476 5.789 1.88 8.212a28.608 28.608 0 0 1 8.466 -0.078c1.405 -2.44 3.58 -6.84 1.832 -8.134 0 0 -5.158 -3.573 -12.179 0"/><path stroke="#2E2E41" stroke-width="2" d="M38.91 17.55c-1.764 1.309 0.476 5.789 1.88 8.212a28.608 28.608 0 0 1 8.466 -0.078c1.405 -2.44 3.58 -6.84 1.832 -8.134 0 0 -5.158 -3.573 -12.179 0z"/><path fill="#FFF" d="m41.706 29.881 -3.554 37.135 7.066 7.022 6.63 -7.022 -3.56 -37.206"/><path stroke="#2E2E41" stroke-width="2" d="m41.706 29.881 -3.554 37.135 7.066 7.022 6.63 -7.022 -3.56 -37.206"/></g></svg>