<svg xmlns="http://www.w3.org/2000/svg" viewBox="0 0 90 90" width="90" height="90"><path fill="#d04b9b" r="44" cy="45" cx="45" d="M89 45A44 44 0 0 1 45 89A44 44 0 0 1 1 45A44 44 0 0 1 89 45z"/><g fill-rule="evenodd" fill="none"><path d="M42.849 33.054h0.512l0.497 -0.428 0.497 0.428h1.283l0.498 -0.428 0.498 0.43h0.518l-1.024 7.301h-2.255l-1.024 -7.303zm2.15 -12.602c4.741 0 8.598 3.857 8.598 8.596 -0.002 0.042 -0.139 4.286 -3.643 8.8 -0.463 0.614 -0.78 1.457 -0.948 2.51h-0.896l1.324 -9.437 -1.557 -0.217 -0.102 -0.12 -0.105 0.09 -0.18 -0.025 -0.03 0.206 -0.185 0.16 -0.5 -0.43h-1.282l-0.498 0.428 -0.494 -0.428h-1.284l-0.496 0.428 -0.18 -0.156 -0.03 -0.208 -0.183 0.026 -0.103 -0.09 -0.1 0.118 -1.56 0.218 1.323 9.436h-0.907c-0.164 -1.053 -0.48 -1.897 -0.948 -2.522 -3.497 -4.5 -3.632 -8.745 -3.632 -8.784 0 -4.742 3.857 -8.6 8.598 -8.6v0.001zm-18.875 8.686h8.317c0.012 0.236 0.065 0.944 0.282 1.965 0.406 1.898 1.384 4.88 3.75 7.925 0.347 0.461 0.578 1.305 0.65 2.378l0.06 0.916h0.286v0.113h1.73v0.947h-1.73v1.963h11.063v-1.963h-7.368v-0.947h7.37v-0.113h0.26l0.068 -0.91c0.078 -1.074 0.314 -1.92 0.654 -2.373 2.373 -3.054 3.355 -6.036 3.759 -7.936 0.22 -1.02 0.272 -1.73 0.284 -1.965h8.317c0.222 0 0.403 0.181 0.403 0.403v24.586H25.722V29.541c0 -0.222 0.18 -0.403 0.402 -0.403zm44.19 27.94c-0.614 0.394 -1.562 0.892 -2.171 0.892H21.855c-0.594 0 -1.52 -0.474 -2.17 -0.892v-0.987h50.628v0.987zm-4.071 -27.537a2.37 2.37 0 0 0 -2.368 -2.366h-8.49c-0.89 -4.932 -5.202 -8.687 -10.385 -8.687s-9.498 3.755 -10.387 8.687h-8.49a2.368 2.368 0 0 0 -2.365 2.366v24.586h-6.037v3.96l0.394 0.294c0.213 0.158 2.125 1.552 3.741 1.552h46.285c1.616 0 3.53 -1.394 3.742 -1.552l0.395 -0.295v-3.96h-6.037V29.542h0.001z" fill="#2E2D42"/><path d="M41.383 48.257h7.234v-1.964h-7.234v1.964zm-13.698 3.994h34.627V31.103h-7.037c-0.407 1.9 -1.39 4.881 -3.76 7.936 -0.34 0.452 -0.577 1.3 -0.655 2.373l-0.066 0.91h-0.263v0.112h-7.368v0.948h7.368v1.964H39.468v-1.964h1.73v-0.948h-1.73v-0.112h-0.285l-0.062 -0.917c-0.072 -1.073 -0.302 -1.916 -0.65 -2.378 -2.365 -3.045 -3.343 -6.026 -3.748 -7.924h-7.038v21.148z" fill="#FEFEFE"/><path d="M41.382 48.257h7.235v-1.964h-7.235v1.964z" fill="#2E2D42"/></g></svg>